# xmcd
#
# Track frame offsets:
#	150
#	11880
#	28630
#	45504
#	63688
#	81468
#	92796
#	114850
#	131275
#	145883
#	161640
#	171680
#	191767
#
# Disc length: 2759 seconds
#
# Revision: 1
# Processed by: cddbd v1.5.2PL0 Copyright (c) Steve Scherf et al.
# Submitted via: audiograbber 1.83.01
#
DISCID=b70ac50d
DTITLE=DEAR HENRY BLISS - FEEDING A DEAD HORSE
DYEAR=2013
DGENRE=Country
TTITLE0=Rain
TTITLE1=Far From Bay
TTITLE2=Talking Cat Blues
TTITLE3=Hard Work
TTITLE4=On Your Way Out
TTITLE5=Keep With Me
TTITLE6=Someone Old (Gome Blind)
TTITLE7=Hail To Henry Hale
TTITLE8=A Dead Horse
TTITLE9=Let It Grow
TTITLE10=The Lobster King
TTITLE11=Life
TTITLE12=Her Majesty
EXTD=
EXTT0=
EXTT1=
EXTT2=
EXTT3=
EXTT4=
EXTT5=
EXTT6=
EXTT7=
EXTT8=
EXTT9=
EXTT10=
EXTT11=
EXTT12=
PLAYORDER=
